<?xml version="1.0" encoding="utf-8"?>
<!-- Generator: Adobe Illustrator 23.0.3, SVG Export Plug-In . SVG Version: 6.00 Build 0)  -->
<svg version="1.1" id="Layer_1" xmlns="http://www.w3.org/2000/svg" xmlns:xlink="http://www.w3.org/1999/xlink" x="0px" y="0px"
	 viewBox="0 0 512 512" style="enable-background:new 0 0 512 512;" xml:space="preserve">
<style type="text/css">
	.st0{fill:#9155A1;}
</style>
<title>ionicons-v5-f</title>
<path class="st0" d="M464,428L339.9,303.9c20-27.5,30.8-60.6,30.7-94.6c0-88.9-72.4-161.3-161.3-161.3S48,120.4,48,209.3
	s72.4,161.3,161.3,161.3c34,0,67.1-10.7,94.6-30.7L428,464L464,428z M209.3,319.7c-61,0-110.4-49.4-110.4-110.4
	S148.3,98.9,209.3,98.9s110.4,49.4,110.4,110.4c0,0,0,0,0,0C319.6,270.2,270.2,319.6,209.3,319.7z"/>
</svg>
